<?xml version="1.0" encoding="UTF-8" standalone="no"?>
<!-- Created with Inkscape (http://www.inkscape.org/) -->

<svg
   version="1.1"
   id="svg1"
   width="3010"
   height="1408"
   viewBox="0 0 3010 1408"
   sodipodi:docname="Logo Corxium.svg"
   inkscape:version="1.4.3 (0d15f75, 2025-12-25)"
   xmlns:inkscape="http://www.inkscape.org/namespaces/inkscape"
   xmlns:sodipodi="http://sodipodi.sourceforge.net/DTD/sodipodi-0.dtd"
   xmlns="http://www.w3.org/2000/svg"
   xmlns:svg="http://www.w3.org/2000/svg">
  <defs
     id="defs1">
    <inkscape:path-effect
       effect="fillet_chamfer"
       id="path-effect10"
       is_visible="true"
       lpeversion="1"
       nodesatellites_param="F,0,0,1,0,0,0,1 @ F,0,0,1,0,0,0,1 @ F,0,0,1,0,0,0,1 @ F,0,0,1,0,0,0,1 @ F,0,0,1,0,0,0,1 @ F,0,0,1,0,0,0,1 @ F,0,0,1,0,0,0,1 @ F,0,0,1,0,0,0,1 @ F,0,0,1,0,0,0,1 @ F,0,0,1,0,0,0,1 @ F,0,0,1,0,0,0,1 @ F,0,0,1,0,0,0,1 @ F,0,0,1,0,0,0,1 | F,0,0,1,0,0,0,1 @ F,0,0,1,0,0,0,1 @ F,0,0,1,0,0,0,1 @ F,0,0,1,0,0,0,1 @ F,0,0,1,0,0,0,1 @ F,0,0,1,0,0,0,1 @ F,0,0,1,0,0,0,1 @ F,0,0,1,0,0,0,1 @ F,0,0,1,0,0,0,1 @ F,0,0,1,0,0,0,1 @ F,0,0,1,0,0,0,1 @ F,0,0,1,0,0,0,1 @ F,0,0,1,0,0,0,1 @ F,0,0,1,0,0,0,1 @ F,0,0,1,0,0,0,1 @ F,0,0,1,0,0,0,1 @ F,0,0,1,0,0,0,1 | F,0,0,1,0,0,0,1 @ F,0,0,1,0,0,0,1 @ F,0,0,1,0,0,0,1 @ F,0,0,1,0,0,0,1 | F,0,0,1,0,0,0,1 @ F,0,0,1,0,0,0,1 @ F,0,0,1,0,0,0,1 @ F,0,0,1,0,0,0,1 | F,0,0,1,0,0,0,1 @ F,0,0,1,0,0,0,1 @ F,0,0,1,0,0,0,1 @ F,0,0,1,0,0,0,1 @ F,0,0,1,0,0,0,1 @ F,0,0,1,0,0,0,1 @ F,0,0,1,0,0,0,1 @ F,0,0,1,0,0,0,1 @ F,0,0,1,0,0,0,1 @ F,0,0,1,0,0,0,1 @ F,0,0,1,0,0,0,1 @ F,0,0,1,0,0,0,1 @ F,0,0,1,0,0,0,1 @ F,0,0,1,0,0,0,1 @ F,0,0,1,0,0,0,1 @ F,0,0,1,0,0,0,1 @ F,0,0,1,0,0,0,1 @ F,0,0,1,0,0,0,1 @ F,0,0,1,0,0,0,1 @ F,0,0,1,0,0,0,1 @ F,0,0,1,0,0,0,1 @ F,0,0,1,0,0,0,1 @ F,0,0,1,0,0,0,1 @ F,0,0,1,0,0,0,1 @ F,0,0,1,0,0,0,1 @ F,0,0,1,0,0,0,1 @ F,0,0,1,0,0,0,1 @ F,0,0,1,0,0,0,1 @ F,0,0,1,0,0,0,1 @ F,0,0,1,0,0,0,1 @ F,0,0,1,0,0,0,1 @ F,0,0,1,0,0,0,1 @ F,0,0,1,0,0,0,1 @ F,0,0,1,0,0,0,1 @ F,0,0,1,0,0,0,1 @ F,0,0,1,0,0,0,1 @ F,0,0,1,0,0,0,1 @ F,0,0,1,0,0,0,1 @ F,0,0,1,0,0,0,1 @ F,0,0,1,0,0,0,1 @ F,0,0,1,0,0,0,1 @ F,0,0,1,0,0,0,1 @ F,0,0,1,0,0,0,1 @ F,0,0,1,0,0,0,1 @ F,0,0,1,0,0,0,1 | F,0,0,1,0,0,0,1 @ F,0,0,1,0,0,0,1 @ F,0,0,1,0,0,0,1 @ F,0,0,1,0,0,0,1 @ F,0,0,1,0,0,0,1 @ F,0,0,1,0,0,0,1 @ F,0,0,1,0,0,0,1 @ F,0,0,1,0,0,0,1 @ F,0,0,1,0,0,0,1 @ F,0,0,1,0,0,0,1 | F,0,0,1,0,0,0,1 @ F,0,0,1,0,0,0,1 @ F,0,0,1,0,0,0,1 @ F,0,0,1,0,0,0,1 @ F,0,0,1,0,0,0,1 @ F,0,0,1,0,0,0,1 @ F,0,0,1,0,0,0,1 @ F,0,0,1,0,0,0,1 @ F,0,0,1,0,0,0,1 @ F,0,0,1,0,0,0,1 @ F,0,0,1,0,0,0,1 @ F,0,0,1,0,0,0,1 @ F,0,0,1,0,0,0,1 @ F,0,0,1,0,0,0,1 @ F,0,0,1,0,0,0,1 @ F,0,0,1,0,0,0,1 @ F,0,0,1,0,0,0,1 @ F,0,0,1,0,0,0,1 @ F,0,0,1,0,0,0,1 @ F,0,0,1,0,0,0,1 @ F,0,0,1,0,0,0,1 @ F,0,0,1,0,0,0,1 @ F,0,0,1,0,0,0,1 @ F,0,0,1,0,0,0,1 @ F,0,0,1,0,0,0,1 | F,0,0,1,0,0,0,1 @ F,0,0,1,0,0,0,1 @ F,0,0,1,0,0,0,1 @ F,0,0,1,0,0,0,1 @ F,0,0,1,0,0,0,1 @ F,0,0,1,0,0,0,1 @ F,0,0,1,0,0,0,1 @ F,0,0,1,0,0,0,1 @ F,0,0,1,0,0,0,1 @ F,0,0,1,0,0,0,1 @ F,0,0,1,0,0,0,1 @ F,0,0,1,0,0,0,1 @ F,0,0,1,0,0,0,1 @ F,0,0,1,0,0,0,1 @ F,0,0,1,0,0,0,1 @ F,0,0,1,0,0,0,1 @ F,0,0,1,0,0,0,1 @ F,0,0,1,0,0,0,1 @ F,0,0,1,0,0,0,1 @ F,0,0,1,0,69.768736,0,1 @ F,0,0,1,0,0,0,1 @ F,0,0,1,0,0,0,1 @ F,0,0,1,0,0,0,1 @ F,0,0,1,0,0,0,1 @ F,0,0,1,0,0,0,1 @ F,0,0,1,0,0,0,1 @ F,0,0,1,0,0,0,1 @ F,0,0,1,0,0,0,1 @ F,0,0,1,0,0,0,1 @ F,0,0,1,0,0,0,1 @ F,0,0,1,0,0,0,1 @ F,0,0,1,0,0,0,1 @ F,0,0,1,0,0,0,1 @ F,0,0,1,0,0,0,1 @ F,0,0,1,0,0,0,1 | F,0,0,1,0,0,0,1 @ F,0,0,1,0,0,0,1 @ F,0,0,1,0,0,0,1 @ F,0,0,1,0,0,0,1 @ F,0,0,1,0,0,0,1 @ F,0,0,1,0,0,0,1 @ F,0,0,1,0,0,0,1 @ F,0,0,1,0,0,0,1"
       radius="0"
       unit="px"
       method="auto"
       mode="F"
       chamfer_steps="1"
       flexible="false"
       use_knot_distance="true"
       apply_no_radius="true"
       apply_with_radius="true"
       only_selected="false"
       hide_knots="false" />
    <inkscape:path-effect
       effect="fillet_chamfer"
       id="path-effect2"
       is_visible="true"
       lpeversion="1"
       nodesatellites_param="F,0,0,1,0,0,0,1 @ F,0,0,1,0,0,0,1 @ F,0,0,1,0,40.874008,0,1 @ F,0,0,1,0,0,0,1 @ F,0,0,1,0,0,0,1 @ F,0,0,1,0,0,0,1 @ F,0,0,1,0,0,0,1"
       radius="0"
       unit="px"
       method="auto"
       mode="F"
       chamfer_steps="1"
       flexible="false"
       use_knot_distance="true"
       apply_no_radius="true"
       apply_with_radius="true"
       only_selected="false"
       hide_knots="false" />
    <inkscape:path-effect
       effect="fillet_chamfer"
       id="path-effect68"
       is_visible="true"
       lpeversion="1"
       nodesatellites_param="F,0,0,1,0,0,0,1 @ F,0,0,1,0,0,0,1 @ F,0,0,1,0,0,0,1 @ F,0,0,1,0,0,0,1 @ F,0,0,1,0,0,0,1 @ F,0,0,1,0,0,0,1 @ F,0,0,1,0,0,0,1 @ F,0,0,1,0,0,0,1"
       radius="0"
       unit="px"
       method="auto"
       mode="F"
       chamfer_steps="1"
       flexible="false"
       use_knot_distance="true"
       apply_no_radius="true"
       apply_with_radius="true"
       only_selected="false"
       hide_knots="false" />
    <inkscape:path-effect
       effect="fillet_chamfer"
       id="path-effect66"
       is_visible="true"
       lpeversion="1"
       nodesatellites_param="F,0,0,1,0,0,0,1 @ F,0,0,1,0,0,0,1 @ F,0,0,1,0,0,0,1 @ F,0,0,1,0,0,0,1 @ F,0,0,1,0,0,0,1 @ F,0,0,1,0,0,0,1 @ F,0,0,1,0,0,0,1 @ F,0,0,1,0,0,0,1 @ F,0,0,1,0,0,0,1 @ F,0,0,1,0,0,0,1 @ F,0,0,1,0,0,0,1 @ F,0,0,1,0,0,0,1 @ F,0,0,1,0,0,0,1 @ F,0,0,1,0,24.644517,0,1 @ F,0,0,1,0,0,0,1 @ F,0,0,1,0,0,0,1 @ F,0,0,1,0,0,0,1 @ F,0,0,1,0,0,0,1 @ F,0,0,1,0,0,0,1 @ F,0,0,1,0,30.29544,0,1 @ F,0,0,1,0,0,0,1 @ F,0,0,1,0,0,0,1 @ F,0,0,1,0,0,0,1 @ F,0,0,1,0,0,0,1 @ F,0,0,1,0,0,0,1 @ F,0,0,1,0,0,0,1 @ F,0,0,1,0,0,0,1 @ F,0,0,1,0,0,0,1 @ F,0,0,1,0,0,0,1 @ F,0,0,1,0,0,0,1 @ F,0,0,1,0,0,0,1 @ F,0,0,1,0,0,0,1 @ F,0,0,1,0,0,0,1 @ F,0,0,1,0,0,0,1 @ F,0,0,1,0,0,0,1 @ F,0,0,1,0,0,0,1"
       radius="0"
       unit="px"
       method="auto"
       mode="F"
       chamfer_steps="1"
       flexible="false"
       use_knot_distance="true"
       apply_no_radius="true"
       apply_with_radius="true"
       only_selected="false"
       hide_knots="false" />
    <inkscape:path-effect
       effect="fillet_chamfer"
       id="path-effect64"
       is_visible="true"
       lpeversion="1"
       nodesatellites_param="F,0,0,1,0,0,0,1 @ F,0,0,1,0,0,0,1 @ F,0,0,1,0,0,0,1 @ F,0,0,1,0,0,0,1 @ F,0,0,1,0,0,0,1 @ F,0,0,1,0,0,0,1 @ F,0,0,1,0,0,0,1 @ F,0,0,1,0,0,0,1 @ F,0,0,1,0,0,0,1 @ F,0,0,1,0,0,0,1 @ F,0,0,1,0,0,0,1 @ F,0,0,1,0,0,0,1 @ F,0,0,1,0,0,0,1 @ F,0,0,1,0,0,0,1 @ F,0,0,1,0,0,0,1 @ F,0,0,1,0,0,0,1 @ F,0,0,1,0,0,0,1 @ F,0,0,1,0,0,0,1 @ F,0,0,1,0,0,0,1 @ F,0,0,1,0,0,0,1 @ F,0,0,1,0,0,0,1 @ F,0,0,1,0,0,0,1 @ F,0,0,1,0,0,0,1 @ F,0,0,1,0,0,0,1 @ F,0,0,1,0,0,0,1"
       radius="0"
       unit="px"
       method="auto"
       mode="F"
       chamfer_steps="1"
       flexible="false"
       use_knot_distance="true"
       apply_no_radius="true"
       apply_with_radius="true"
       only_selected="false"
       hide_knots="false" />
    <inkscape:path-effect
       effect="fillet_chamfer"
       id="path-effect62"
       is_visible="true"
       lpeversion="1"
       nodesatellites_param="F,0,0,1,0,0,0,1 @ F,0,0,1,0,0,0,1 @ F,0,0,1,0,0,0,1 @ F,0,0,1,0,0,0,1 @ F,0,0,1,0,0,0,1 @ F,0,0,1,0,0,0,1 @ F,0,0,1,0,0,0,1 @ F,0,0,1,0,0,0,1 @ F,0,0,1,0,0,0,1 @ F,0,0,1,0,0,0,1"
       radius="0"
       unit="px"
       method="auto"
       mode="F"
       chamfer_steps="1"
       flexible="false"
       use_knot_distance="true"
       apply_no_radius="true"
       apply_with_radius="true"
       only_selected="false"
       hide_knots="false" />
    <inkscape:path-effect
       effect="fillet_chamfer"
       id="path-effect60"
       is_visible="true"
       lpeversion="1"
       nodesatellites_param="F,0,0,1,0,0,0,1 @ F,0,0,1,0,0,0,1 @ F,0,0,1,0,0,0,1 @ F,0,0,1,0,0,0,1 @ F,0,0,1,0,0,0,1 @ F,0,0,1,0,0,0,1 @ F,0,0,1,0,0,0,1 @ F,0,0,1,0,0,0,1 @ F,0,0,1,0,0,0,1 @ F,0,0,1,0,0,0,1 @ F,0,0,1,0,0,0,1 @ F,0,0,1,0,0,0,1 @ F,0,0,1,0,0,0,1 @ F,0,0,1,0,0,0,1 @ F,0,0,1,0,0,0,1 @ F,0,0,1,0,0,0,1 @ F,0,0,1,0,0,0,1 @ F,0,0,1,0,0,0,1 @ F,0,0,1,0,0,0,1 @ F,0,0,1,0,0,0,1 @ F,0,0,1,0,0,0,1 @ F,0,0,1,0,0,0,1 @ F,0,0,1,0,0,0,1 @ F,0,0,1,0,0,0,1 @ F,0,0,1,0,0,0,1 @ F,0,0,1,0,0,0,1 @ F,0,0,1,0,0,0,1 @ F,0,0,1,0,0,0,1 @ F,0,0,1,0,0,0,1 @ F,0,0,1,0,0,0,1 @ F,0,0,1,0,0,0,1 @ F,0,0,1,0,0,0,1 @ F,0,0,1,0,0,0,1 @ F,0,0,1,0,0,0,1 @ F,0,0,1,0,0,0,1 @ F,0,0,1,0,0,0,1 @ F,0,0,1,0,0,0,1 @ F,0,0,1,0,0,0,1 @ F,0,0,1,0,0,0,1 @ F,0,0,1,0,0,0,1 @ F,0,0,1,0,0,0,1 @ F,0,0,1,0,0,0,1 @ F,0,0,1,0,0,0,1 @ F,0,0,1,0,0,0,1 @ F,0,0,1,0,0,0,1"
       radius="0"
       unit="px"
       method="auto"
       mode="F"
       chamfer_steps="1"
       flexible="false"
       use_knot_distance="true"
       apply_no_radius="true"
       apply_with_radius="true"
       only_selected="false"
       hide_knots="false" />
    <inkscape:path-effect
       effect="fillet_chamfer"
       id="path-effect58"
       is_visible="true"
       lpeversion="1"
       nodesatellites_param="F,0,0,1,0,0,0,1 @ F,0,0,1,0,0,0,1 @ F,0,0,1,0,0,0,1 @ F,0,0,1,0,0,0,1"
       radius="0"
       unit="px"
       method="auto"
       mode="F"
       chamfer_steps="1"
       flexible="false"
       use_knot_distance="true"
       apply_no_radius="true"
       apply_with_radius="true"
       only_selected="false"
       hide_knots="false" />
    <inkscape:path-effect
       effect="fillet_chamfer"
       id="path-effect56"
       is_visible="true"
       lpeversion="1"
       nodesatellites_param="F,0,0,1,0,0,0,1 @ F,0,0,1,0,0,0,1 @ F,0,0,1,0,0,0,1 @ F,0,0,1,0,0,0,1"
       radius="0"
       unit="px"
       method="auto"
       mode="F"
       chamfer_steps="1"
       flexible="false"
       use_knot_distance="true"
       apply_no_radius="true"
       apply_with_radius="true"
       only_selected="false"
       hide_knots="false" />
    <inkscape:path-effect
       effect="fillet_chamfer"
       id="path-effect54"
       is_visible="true"
       lpeversion="1"
       nodesatellites_param="F,0,0,1,0,0,0,1 @ F,0,0,1,0,0,0,1 @ F,0,0,1,0,0,0,1 @ F,0,0,1,0,0,0,1 @ F,0,0,1,0,0,0,1 @ F,0,0,1,0,0,0,1 @ F,0,0,1,0,0,0,1 @ F,0,0,1,0,0,0,1 @ F,0,0,1,0,0,0,1 @ F,0,0,1,0,0,0,1 @ F,0,0,1,0,0,0,1 @ F,0,0,1,0,0,0,1 @ F,0,0,1,0,0,0,1 @ F,0,0,1,0,0,0,1 @ F,0,0,1,0,0,0,1 @ F,0,0,1,0,0,0,1 @ F,0,0,1,0,0,0,1"
       radius="0"
       unit="px"
       method="auto"
       mode="F"
       chamfer_steps="1"
       flexible="false"
       use_knot_distance="true"
       apply_no_radius="true"
       apply_with_radius="true"
       only_selected="false"
       hide_knots="false" />
    <inkscape:path-effect
       effect="fillet_chamfer"
       id="path-effect52"
       is_visible="true"
       lpeversion="1"
       nodesatellites_param="F,0,0,1,0,0,0,1 @ F,0,0,1,0,0,0,1 @ F,0,0,1,0,0,0,1 @ F,0,0,1,0,0,0,1 @ F,0,0,1,0,0,0,1 @ F,0,0,1,0,0,0,1 @ F,0,0,1,0,0,0,1 @ F,0,0,1,0,0,0,1"
       radius="0"
       unit="px"
       method="auto"
       mode="F"
       chamfer_steps="1"
       flexible="false"
       use_knot_distance="true"
       apply_no_radius="true"
       apply_with_radius="true"
       only_selected="false"
       hide_knots="false" />
    <inkscape:path-effect
       effect="fillet_chamfer"
       id="path-effect50"
       is_visible="true"
       lpeversion="1"
       nodesatellites_param="F,0,0,1,0,0,0,1 @ F,0,0,1,0,0,0,1 @ F,0,0,1,0,0,0,1 @ F,0,0,1,0,0,0,1 @ F,0,0,1,0,0,0,1 @ F,0,0,1,0,0,0,1 @ F,0,0,1,0,0,0,1 @ F,0,0,1,0,0,0,1 @ F,0,0,1,0,0,0,1 @ F,0,0,1,0,0,0,1 @ F,0,0,1,0,0,0,1 @ F,0,0,1,0,0,0,1 @ F,0,0,1,0,0,0,1 @ F,0,0,1,0,0,0,1 @ F,0,0,1,0,0,0,1 @ F,0,0,1,0,0,0,1 @ F,0,0,1,0,0,0,1 @ F,0,0,1,0,0,0,1 @ F,0,0,1,0,0,0,1 @ F,0,0,1,0,0,0,1 @ F,0,0,1,0,0,0,1 @ F,0,0,1,0,0,0,1 @ F,0,0,1,0,0,0,1 @ F,0,0,1,0,0,0,1 @ F,0,0,1,0,0,0,1 @ F,0,0,1,0,0,0,1 @ F,0,0,1,0,0,0,1 @ F,0,0,1,0,0,0,1 @ F,0,0,1,0,0,0,1 @ F,0,0,1,0,0,0,1 @ F,0,0,1,0,0,0,1 @ F,0,0,1,0,0,0,1 @ F,0,0,1,0,0,0,1 @ F,0,0,1,0,0,0,1 @ F,0,0,1,0,0,0,1 @ F,0,0,1,0,0,0,1 @ F,0,0,1,0,0,0,1 @ F,0,0,1,0,0,0,1 @ F,0,0,1,0,0,0,1 @ F,0,0,1,0,0,0,1 @ F,0,0,1,0,0,0,1 @ F,0,0,1,0,0,0,1 @ F,0,0,1,0,0,0,1 @ F,0,0,1,0,0,0,1 @ F,0,0,1,0,0,0,1 @ F,0,0,1,0,0,0,1 @ F,0,0,1,0,0,0,1 @ F,0,0,1,0,0,0,1 @ F,0,0,1,0,0,0,1 @ F,0,0,1,0,0,0,1 @ F,0,0,1,0,0,0,1 @ F,0,0,1,0,0,0,1 @ F,0,0,1,0,0,0,1 @ F,0,0,1,0,0,0,1 @ F,0,0,1,0,0,0,1 @ F,0,0,1,0,0,0,1 @ F,0,0,1,0,0,0,1 @ F,0,0,1,0,0,0,1"
       radius="0"
       unit="px"
       method="auto"
       mode="F"
       chamfer_steps="1"
       flexible="false"
       use_knot_distance="true"
       apply_no_radius="true"
       apply_with_radius="true"
       only_selected="false"
       hide_knots="false" />
    <inkscape:path-effect
       effect="fillet_chamfer"
       id="path-effect48"
       is_visible="true"
       lpeversion="1"
       nodesatellites_param="F,0,0,1,0,0,0,1 @ F,0,0,1,0,0,0,1 @ F,0,0,1,0,0,0,1 @ F,0,0,1,0,0,0,1 @ F,0,0,1,0,0,0,1 @ F,0,0,1,0,0,0,1 @ F,0,0,1,0,0,0,1 @ F,0,0,1,0,0,0,1 @ F,0,0,1,0,0,0,1 @ F,0,0,1,0,0,0,1 @ F,0,0,1,0,0,0,1 @ F,0,0,1,0,0,0,1 @ F,0,0,1,0,0,0,1 @ F,0,0,1,0,0,0,1 @ F,0,0,1,0,0,0,1 @ F,0,0,1,0,0,0,1 @ F,0,0,1,0,0,0,1 @ F,0,0,1,0,0,0,1 @ F,0,0,1,0,0,0,1 @ F,0,0,1,0,0,0,1 @ F,0,0,1,0,0,0,1 @ F,0,0,1,0,0,0,1 @ F,0,0,1,0,0,0,1 @ F,0,0,1,0,0,0,1 @ F,0,0,1,0,0,0,1"
       radius="0"
       unit="px"
       method="auto"
       mode="F"
       chamfer_steps="1"
       flexible="false"
       use_knot_distance="true"
       apply_no_radius="true"
       apply_with_radius="true"
       only_selected="false"
       hide_knots="false" />
    <inkscape:path-effect
       effect="fillet_chamfer"
       id="path-effect46"
       is_visible="true"
       lpeversion="1"
       nodesatellites_param="F,0,0,1,0,0,0,1 @ F,0,0,1,0,0,0,1 @ F,0,0,1,0,0,0,1 @ F,0,0,1,0,0,0,1 @ F,0,0,1,0,0,0,1 @ F,0,0,1,0,0,0,1 @ F,0,0,1,0,0,0,1 @ F,0,0,1,0,0,0,1 @ F,0,0,1,0,0,0,1 @ F,0,0,1,0,0,0,1"
       radius="0"
       unit="px"
       method="auto"
       mode="F"
       chamfer_steps="1"
       flexible="false"
       use_knot_distance="true"
       apply_no_radius="true"
       apply_with_radius="true"
       only_selected="false"
       hide_knots="false" />
    <inkscape:path-effect
       effect="fillet_chamfer"
       id="path-effect44"
       is_visible="true"
       lpeversion="1"
       nodesatellites_param="F,0,0,1,0,0,0,1 @ F,0,0,1,0,0,0,1 @ F,0,0,1,0,0,0,1 @ F,0,0,1,0,0,0,1 @ F,0,0,1,0,0,0,1 @ F,0,0,1,0,0,0,1 @ F,0,0,1,0,0,0,1 @ F,0,0,1,0,0,0,1 @ F,0,0,1,0,0,0,1 @ F,0,0,1,0,0,0,1 @ F,0,0,1,0,0,0,1 @ F,0,0,1,0,0,0,1 @ F,0,0,1,0,0,0,1 @ F,0,0,1,0,0,0,1 @ F,0,0,1,0,0,0,1 @ F,0,0,1,0,0,0,1 @ F,0,0,1,0,0,0,1 @ F,0,0,1,0,0,0,1 @ F,0,0,1,0,0,0,1 @ F,0,0,1,0,0,0,1 @ F,0,0,1,0,0,0,1 @ F,0,0,1,0,0,0,1 @ F,0,0,1,0,0,0,1 @ F,0,0,1,0,0,0,1 @ F,0,0,1,0,0,0,1 @ F,0,0,1,0,0,0,1 @ F,0,0,1,0,0,0,1 @ F,0,0,1,0,0,0,1 @ F,0,0,1,0,0,0,1 @ F,0,0,1,0,0,0,1 @ F,0,0,1,0,0,0,1 @ F,0,0,1,0,0,0,1 @ F,0,0,1,0,0,0,1 @ F,0,0,1,0,0,0,1 @ F,0,0,1,0,0,0,1 @ F,0,0,1,0,0,0,1 @ F,0,0,1,0,0,0,1 @ F,0,0,1,0,0,0,1 @ F,0,0,1,0,0,0,1 @ F,0,0,1,0,0,0,1 @ F,0,0,1,0,0,0,1 @ F,0,0,1,0,0,0,1 @ F,0,0,1,0,0,0,1 @ F,0,0,1,0,0,0,1 @ F,0,0,1,0,0,0,1"
       radius="0"
       unit="px"
       method="auto"
       mode="F"
       chamfer_steps="1"
       flexible="false"
       use_knot_distance="true"
       apply_no_radius="true"
       apply_with_radius="true"
       only_selected="false"
       hide_knots="false" />
    <inkscape:path-effect
       effect="fillet_chamfer"
       id="path-effect42"
       is_visible="true"
       lpeversion="1"
       nodesatellites_param="F,0,0,1,0,0,0,1 @ F,0,0,1,0,0,0,1 @ F,0,0,1,0,0,0,1 @ F,0,0,1,0,0,0,1 @ F,0,0,1,0,0,0,1 @ F,0,0,1,0,0,0,1 @ F,0,0,1,0,0,0,1 @ F,0,0,1,0,0,0,1 @ F,0,0,1,0,0,0,1 @ F,0,0,1,0,0,0,1 @ F,0,0,1,0,0,0,1 @ F,0,0,1,0,0,0,1 @ F,0,0,1,0,0,0,1 @ F,0,0,1,0,0,0,1 @ F,0,0,1,0,0,0,1 @ F,0,0,1,0,0,0,1 @ F,0,0,1,0,0,0,1 @ F,0,0,1,0,0,0,1 @ F,0,0,1,0,0,0,1 @ F,0,0,1,0,0,0,1 @ F,0,0,1,0,0,0,1 @ F,0,0,1,0,0,0,1 @ F,0,0,1,0,0,0,1 @ F,0,0,1,0,0,0,1 @ F,0,0,1,0,0,0,1 @ F,0,0,1,0,0,0,1 @ F,0,0,1,0,0,0,1 @ F,0,0,1,0,0,0,1 @ F,0,0,1,0,0,0,1 @ F,0,0,1,0,0,0,1 @ F,0,0,1,0,0,0,1 @ F,0,0,1,0,0,0,1 @ F,0,0,1,0,0,0,1 @ F,0,0,1,0,0,0,1 @ F,0,0,1,0,0,0,1"
       radius="0"
       unit="px"
       method="auto"
       mode="F"
       chamfer_steps="1"
       flexible="false"
       use_knot_distance="true"
       apply_no_radius="true"
       apply_with_radius="true"
       only_selected="false"
       hide_knots="false" />
    <inkscape:path-effect
       effect="fillet_chamfer"
       id="path-effect40"
       is_visible="true"
       lpeversion="1"
       nodesatellites_param="F,0,0,1,0,0,0,1 @ F,0,0,1,0,0,0,1 @ F,0,0,1,0,0,0,1 @ F,0,0,1,0,0,0,1 @ F,0,0,1,0,0,0,1 @ F,0,0,1,0,0,0,1 @ F,0,0,1,0,0,0,1 @ F,0,0,1,0,0,0,1 @ F,0,0,1,0,0,0,1 @ F,0,0,1,0,0,0,1 @ F,0,0,1,0,0,0,1 @ F,0,0,1,0,0,0,1 @ F,0,0,1,0,0,0,1 @ F,0,0,1,0,0,0,1 @ F,0,0,1,0,0,0,1 @ F,0,0,1,0,0,0,1 @ F,0,0,1,0,0,0,1 @ F,0,0,1,0,0,0,1 @ F,0,0,1,0,0,0,1 @ F,0,0,1,0,0,0,1 @ F,0,0,1,0,0,0,1"
       radius="0"
       unit="px"
       method="auto"
       mode="F"
       chamfer_steps="1"
       flexible="false"
       use_knot_distance="true"
       apply_no_radius="true"
       apply_with_radius="true"
       only_selected="false"
       hide_knots="false" />
    <inkscape:path-effect
       effect="fillet_chamfer"
       id="path-effect38"
       is_visible="true"
       lpeversion="1"
       nodesatellites_param="F,0,0,1,0,0,0,1 @ F,0,0,1,0,0,0,1 @ F,0,0,1,0,0,0,1 @ F,0,0,1,0,0,0,1 @ F,0,0,1,0,0,0,1 @ F,0,0,1,0,0,0,1 @ F,0,0,1,0,0,0,1 @ F,0,0,1,0,0,0,1 @ F,0,0,1,0,0,0,1 @ F,0,0,1,0,0,0,1 @ F,0,0,1,0,0,0,1 @ F,0,0,1,0,0,0,1 @ F,0,0,1,0,0,0,1 @ F,0,0,1,0,0,0,1 @ F,0,0,1,0,0,0,1 @ F,0,0,1,0,0,0,1 @ F,0,0,1,0,0,0,1 @ F,0,0,1,0,0,0,1 @ F,0,0,1,0,0,0,1 @ F,0,0,1,0,0,0,1 @ F,0,0,1,0,0,0,1 @ F,0,0,1,0,0,0,1 @ F,0,0,1,0,0,0,1 @ F,0,0,1,0,0,0,1 @ F,0,0,1,0,0,0,1 @ F,0,0,1,0,0,0,1 @ F,0,0,1,0,0,0,1 @ F,0,0,1,0,0,0,1 @ F,0,0,1,0,0,0,1 @ F,0,0,1,0,0,0,1 @ F,0,0,1,0,0,0,1 @ F,0,0,1,0,0,0,1 @ F,0,0,1,0,0,0,1 @ F,0,0,1,0,0,0,1 @ F,0,0,1,0,0,0,1"
       radius="0"
       unit="px"
       method="auto"
       mode="F"
       chamfer_steps="1"
       flexible="false"
       use_knot_distance="true"
       apply_no_radius="true"
       apply_with_radius="true"
       only_selected="false"
       hide_knots="false" />
    <inkscape:path-effect
       effect="fillet_chamfer"
       id="path-effect36"
       is_visible="true"
       lpeversion="1"
       nodesatellites_param="F,0,0,1,0,0,0,1 @ F,0,0,1,0,0,0,1 @ F,0,0,1,0,0,0,1 @ F,0,0,1,0,0,0,1 @ F,0,0,1,0,0,0,1 @ F,0,0,1,0,0,0,1 @ F,0,0,1,0,0,0,1 @ F,0,0,1,0,0,0,1 @ F,0,0,1,0,0,0,1 @ F,0,0,1,0,0,0,1 @ F,0,0,1,0,0,0,1 @ F,0,0,1,0,0,0,1 @ F,0,0,1,0,0,0,1 @ F,0,0,1,0,0,0,1 @ F,0,0,1,0,0,0,1 @ F,0,0,1,0,0,0,1 @ F,0,0,1,0,0,0,1 @ F,0,0,1,0,0,0,1 @ F,0,0,1,0,0,0,1 @ F,0,0,1,0,0,0,1 @ F,0,0,1,0,0,0,1 @ F,0,0,1,0,0,0,1 @ F,0,0,1,0,0,0,1 @ F,0,0,1,0,0,0,1 @ F,0,0,1,0,0,0,1 @ F,0,0,1,0,0,0,1 @ F,0,0,1,0,0,0,1 @ F,0,0,1,0,0,0,1 @ F,0,0,1,0,0,0,1 @ F,0,0,1,0,0,0,1 @ F,0,0,1,0,0,0,1 @ F,0,0,1,0,0,0,1 @ F,0,0,1,0,0,0,1 @ F,0,0,1,0,0,0,1 @ F,0,0,1,0,0,0,1 @ F,0,0,1,0,0,0,1 @ F,0,0,1,0,0,0,1 @ F,0,0,1,0,0,0,1 @ F,0,0,1,0,0,0,1 @ F,0,0,1,0,0,0,1 @ F,0,0,1,0,0,0,1 @ F,0,0,1,0,0,0,1 @ F,0,0,1,0,0,0,1 @ F,0,0,1,0,0,0,1 @ F,0,0,1,0,0,0,1 @ F,0,0,1,0,0,0,1 @ F,0,0,1,0,0,0,1 @ F,0,0,1,0,0,0,1 @ F,0,0,1,0,0,0,1 @ F,0,0,1,0,0,0,1 @ F,0,0,1,0,0,0,1 @ F,0,0,1,0,0,0,1 @ F,0,0,1,0,0,0,1 @ F,0,0,1,0,0,0,1 @ F,0,0,1,0,0,0,1 @ F,0,0,1,0,0,0,1 @ F,0,0,1,0,0,0,1 @ F,0,0,1,0,0,0,1"
       radius="0"
       unit="px"
       method="auto"
       mode="F"
       chamfer_steps="1"
       flexible="false"
       use_knot_distance="true"
       apply_no_radius="true"
       apply_with_radius="true"
       only_selected="false"
       hide_knots="false" />
    <inkscape:path-effect
       effect="fillet_chamfer"
       id="path-effect34"
       is_visible="true"
       lpeversion="1"
       nodesatellites_param="F,0,0,1,0,0,0,1 @ F,0,0,1,0,0,0,1 @ F,0,0,1,0,0,0,1 @ F,0,0,1,0,0,0,1 @ F,0,0,1,0,0,0,1 @ F,0,0,1,0,0,0,1 @ F,0,0,1,0,0,0,1 @ F,0,0,1,0,0,0,1 @ F,0,0,1,0,0,0,1"
       radius="0"
       unit="px"
       method="auto"
       mode="F"
       chamfer_steps="1"
       flexible="false"
       use_knot_distance="true"
       apply_no_radius="true"
       apply_with_radius="true"
       only_selected="false"
       hide_knots="false" />
    <inkscape:path-effect
       effect="fillet_chamfer"
       id="path-effect32"
       is_visible="true"
       lpeversion="1"
       nodesatellites_param="F,0,0,1,0,0,0,1 @ F,0,0,1,0,0,0,1 @ F,0,0,1,0,0,0,1 @ F,0,0,1,0,0,0,1 @ F,0,0,1,0,0,0,1 @ F,0,0,1,0,0,0,1 @ F,0,0,1,0,0,0,1 @ F,0,0,1,0,0,0,1 @ F,0,0,1,0,0,0,1 @ F,0,0,1,0,0,0,1 @ F,0,0,1,0,0,0,1 @ F,0,0,1,0,0,0,1 @ F,0,0,1,0,0,0,1 @ F,0,0,1,0,0,0,1 @ F,0,0,1,0,0,0,1 @ F,0,0,1,0,0,0,1 @ F,0,0,1,0,0,0,1 @ F,0,0,1,0,0,0,1 @ F,0,0,1,0,0,0,1"
       radius="0"
       unit="px"
       method="auto"
       mode="F"
       chamfer_steps="1"
       flexible="false"
       use_knot_distance="true"
       apply_no_radius="true"
       apply_with_radius="true"
       only_selected="false"
       hide_knots="false" />
    <inkscape:path-effect
       effect="fillet_chamfer"
       id="path-effect31"
       is_visible="true"
       lpeversion="1"
       nodesatellites_param="F,0,0,1,0,0,0,1 @ F,0,0,1,0,0,0,1 @ F,0,0,1,0,0,0,1 @ F,0,0,1,0,0,0,1 @ F,0,0,1,0,0,0,1 @ F,0,0,1,0,0,0,1 @ F,0,0,1,0,0,0,1 @ F,0,0,1,0,0,0,1 @ F,0,0,1,0,0,0,1 @ F,0,0,1,0,0,0,1 @ F,0,0,1,0,0,0,1 @ F,0,0,1,0,0,0,1 @ F,0,0,1,0,0,0,1 @ F,0,0,1,0,0,0,1 @ F,0,0,1,0,0,0,1 @ F,0,0,1,0,0,0,1 @ F,0,0,1,0,0,0,1 @ F,0,0,1,0,0,0,1 @ F,0,0,1,0,0,0,1 @ F,0,0,1,0,0,0,1 | F,0,0,1,0,0,0,1 @ F,0,0,1,0,0,0,1 @ F,0,0,1,0,0,0,1 @ F,0,0,1,0,0,0,1 @ F,0,0,1,0,0,0,1 @ F,0,0,1,0,0,0,1 @ F,0,0,1,0,0,0,1 @ F,0,0,1,0,0,0,1 @ F,0,0,1,0,0,0,1"
       radius="0"
       unit="px"
       method="auto"
       mode="F"
       chamfer_steps="1"
       flexible="false"
       use_knot_distance="true"
       apply_no_radius="true"
       apply_with_radius="true"
       only_selected="false"
       hide_knots="false" />
    <inkscape:path-effect
       effect="fillet_chamfer"
       id="path-effect30"
       is_visible="true"
       lpeversion="1"
       nodesatellites_param="F,0,0,1,0,0,0,1 @ F,0,0,1,0,0,0,1 @ F,0,0,1,0,0,0,1 @ F,0,0,1,0,0,0,1 @ F,0,0,1,0,0,0,1 @ F,0,0,1,0,0,0,1 @ F,0,0,1,0,0,0,1 @ F,0,0,1,0,0,0,1 @ F,0,0,1,0,0,0,1 @ F,0,0,1,0,0,0,1 @ F,0,0,1,0,0,0,1 @ F,0,0,1,0,0,0,1 @ F,0,0,1,0,0,0,1 @ F,0,0,1,0,0,0,1 @ F,0,0,1,0,0,0,1 @ F,0,0,1,0,0,0,1 @ F,0,0,1,0,0,0,1 @ F,0,0,1,0,0,0,1 @ F,0,0,1,0,0,0,1 @ F,0,0,1,0,0,0,1 | F,0,0,1,0,0,0,1 @ F,0,0,1,0,0,0,1 @ F,0,0,1,0,0,0,1 @ F,0,0,1,0,0,0,1 @ F,0,0,1,0,0,0,1 @ F,0,0,1,0,0,0,1 @ F,0,0,1,0,0,0,1 @ F,0,0,1,0,0,0,1 @ F,0,0,1,0,0,0,1"
       radius="0"
       unit="px"
       method="auto"
       mode="F"
       chamfer_steps="1"
       flexible="false"
       use_knot_distance="true"
       apply_no_radius="true"
       apply_with_radius="true"
       only_selected="false"
       hide_knots="false" />
    <inkscape:path-effect
       effect="fillet_chamfer"
       id="path-effect29"
       is_visible="true"
       lpeversion="1"
       nodesatellites_param="F,0,0,1,0,0,0,1 @ F,0,0,1,0,0,0,1 @ F,0,0,1,0,6.3068996,0,1 @ F,0,0,1,0,0,0,1 @ F,0,0,1,0,0,0,1 @ F,0,0,1,0,0,0,1 @ F,0,0,1,0,0,0,1 @ F,0,0,1,0,1.9695422,0,1 @ F,0,0,1,0,10.063547,0,1 @ F,0,0,1,0,0,0,1 @ F,0,0,1,0,0,0,1 @ F,0,0,1,0,0,0,1 @ F,0,0,1,0,0,0,1 @ F,0,0,1,0,0,0,1 @ F,0,0,1,0,22.19377,0,1 @ F,0,0,1,0,0,0,1 @ F,0,0,1,0,0,0,1 @ F,0,0,1,0,0,0,1 @ F,0,0,1,0,0,0,1 @ F,0,0,1,0,0,0,1 @ F,0,0,1,0,0,0,1 | F,0,0,1,0,0,0,1 @ F,0,0,1,0,0,0,1 @ F,0,0,1,0,0,0,1 @ F,0,0,1,0,0,0,1 @ F,0,0,1,0,0,0,1 @ F,0,0,1,0,0,0,1 @ F,0,0,1,0,0,0,1 @ F,0,0,1,0,0,0,1 @ F,0,0,1,0,0,0,1"
       radius="0"
       unit="px"
       method="auto"
       mode="F"
       chamfer_steps="1"
       flexible="false"
       use_knot_distance="true"
       apply_no_radius="true"
       apply_with_radius="true"
       only_selected="false"
       hide_knots="false" />
    <inkscape:path-effect
       effect="fillet_chamfer"
       id="path-effect28"
       is_visible="true"
       lpeversion="1"
       nodesatellites_param="F,0,0,1,0,0,0,1 @ F,0,0,1,0,0,0,1 @ F,0,0,1,0,0,0,1 @ F,0,0,1,0,0,0,1 @ F,0,0,1,0,0,0,1 @ F,0,0,1,0,0,0,1 @ F,0,0,1,0,0,0,1 @ F,0,0,1,0,0,0,1 @ F,0,0,1,0,0,0,1 @ F,0,0,1,0,0,0,1 @ F,0,0,1,0,0,0,1 @ F,0,0,1,0,0,0,1 @ F,0,0,1,0,0,0,1 @ F,0,0,1,0,0,0,1 @ F,0,0,1,0,0,0,1 @ F,0,0,1,0,0,0,1 @ F,0,0,1,0,0,0,1 @ F,0,0,1,0,0,0,1 @ F,0,0,1,0,0,0,1 @ F,0,0,1,0,0,0,1 @ F,0,0,1,0,0,0,1 @ F,0,0,1,0,0,0,1 @ F,0,0,1,0,0,0,1 @ F,0,0,1,0,0,0,1 | F,0,0,1,0,0,0,1 @ F,0,0,1,0,0,0,1 @ F,0,0,1,0,0,0,1 @ F,0,0,1,0,0,0,1 @ F,0,0,1,0,0,0,1 @ F,0,0,1,0,0,0,1 @ F,0,0,1,0,0,0,1 @ F,0,0,1,0,0,0,1 @ F,0,0,1,0,0,0,1"
       radius="0"
       unit="px"
       method="auto"
       mode="F"
       chamfer_steps="1"
       flexible="false"
       use_knot_distance="true"
       apply_no_radius="true"
       apply_with_radius="true"
       only_selected="false"
       hide_knots="false" />
    <inkscape:path-effect
       effect="fillet_chamfer"
       id="path-effect27"
       is_visible="true"
       lpeversion="1"
       nodesatellites_param="F,0,0,1,0,0,0,1 @ F,0,0,1,0,0,0,1 @ F,0,0,1,0,0,0,1 @ F,0,0,1,0,0,0,1 @ F,0,0,1,0,5.589924,0,1 @ F,0,0,1,0,0,0,1 @ F,0,0,1,0,0,0,1 @ F,0,0,1,0,0,0,1 @ F,0,0,1,0,0,0,1 @ F,0,0,1,0,0,0,1 @ F,0,0,1,0,0,0,1 @ F,0,0,1,0,8.5386197,0,1 @ F,0,0,1,0,0,0,1 @ F,0,0,1,0,25.406166,0,1 @ F,0,0,1,0,0,0,1 @ F,0,0,1,0,0,0,1 @ F,0,0,1,0,0,0,1 @ F,0,0,1,0,0,0,1 @ F,0,0,1,0,0,0,1 @ F,0,0,1,0,0,0,1 @ F,0,0,1,0,0,0,1 @ F,0,0,1,0,0,0,1 @ F,0,0,1,0,0,0,1 @ F,0,0,1,0,0,0,1 | F,0,0,1,0,0,0,1 @ F,0,0,1,0,0,0,1 @ F,0,0,1,0,60.819148,0,1 @ F,0,0,1,0,0,0,1 @ F,0,0,1,0,0,0,1 @ F,0,0,1,0,0,0,1 @ F,0,0,1,0,0,0,1 @ F,0,0,1,0,0,0,1 @ F,0,0,1,0,0,0,1"
       radius="0"
       unit="px"
       method="auto"
       mode="F"
       chamfer_steps="1"
       flexible="false"
       use_knot_distance="true"
       apply_no_radius="true"
       apply_with_radius="true"
       only_selected="false"
       hide_knots="false" />
  </defs>
  <sodipodi:namedview
     id="namedview1"
     pagecolor="#ffffff"
     bordercolor="#000000"
     borderopacity="0.25"
     inkscape:showpageshadow="2"
     inkscape:pageopacity="0.0"
     inkscape:pagecheckerboard="0"
     inkscape:deskcolor="#d1d1d1"
     showguides="false"
     inkscape:zoom="0.12429612"
     inkscape:cx="1114.2746"
     inkscape:cy="695.91877"
     inkscape:window-width="1366"
     inkscape:window-height="697"
     inkscape:window-x="-8"
     inkscape:window-y="-8"
     inkscape:window-maximized="1"
     inkscape:current-layer="g1" />
  <g
     inkscape:groupmode="layer"
     inkscape:label="Image"
     id="g1">
    <path
       id="path34"
       style="fill:#000000;stroke:#000000;stroke-linecap:square;stroke-linejoin:bevel;stroke-opacity:0;paint-order:markers stroke fill"
       transform="translate(64.984659,-13.502042)"
       d="m 984.17789,770.46303 c 0,0 -71.38237,-12.79005 -72.195,-10.15714 -15.54812,64.82882 -131.39787,65.03112 -161.3425,3.12375 -12.84483,-26.55633 -7.9198,-72.61896 -3.5513,-84.8029 26.94959,-75.16434 137.36805,-64.14304 160.0471,-17.78929 4.7119,9.63073 5.64082,9.65519 18.563,6.66154 l 58.9382,-13.65407 c 2.1196,-0.49104 -7.542,-17.48516 -10.8723,-22.06947 -14.7202,-20.26308 -40.1285,-37.522 -66.7685,-45.35341 -25.79088,-9.67013 -53.99422,-10.89563 -81.3591,-10.67546 -166.98125,4.68794 -167.4945,143.64476 -161.921,161.68966 0.19171,4.21586 3.78195,59.31146 61.421,94.90061 38.80562,23.80513 72.29338,26.92314 118.5,26.5672 124.24315,-1.36432 144.37323,-87.48323 140.5404,-88.44102 z m 1190.51931,60.06312 c 0.443,0.7168 0.5659,5.8258 0.2732,11.3533 -0.8106,15.3087 -3.7511,14.1168 33.8374,13.7155 28.4113,-0.3034 31.5007,-0.5003 33.1663,-2.1145 1.7584,-1.7041 1.8327,-5.8829 1.7443,-98.16544 -0.091,-95.52085 -0.1105,-96.4007 -2.1184,-98.07157 -1.8246,-1.51834 -5.3544,-1.66239 -35.4957,-1.44861 -25.1338,0.17826 -33.7807,0.54797 -34.7183,1.48442 -0.9506,0.94936 -1.3987,13.94649 -1.8775,54.44861 -0.5146,43.52826 -0.9235,54.56526 -2.2488,60.70158 -3.3463,29.26264 -18.1083,42.01862 -46.1223,43.41021 -59.2369,6.08468 -49.0897,-50.63652 -49.3093,-92.40037 -0.2174,-41.33658 -0.7105,-65.93121 -1.3369,-66.68603 -1.3114,-1.58009 -69.6971,-1.69877 -71.5943,-0.12425 -0.991,0.82246 -1.2595,16.12932 -1.2595,71.79524 v 70.74991 c 9.2258,51.50928 59.1179,60.02827 90.5,60.1379 63.0566,2.00233 84.105,-32.75757 86.5598,-28.7859 z M 1109.9633,740.92944 c 12.5709,-40.73751 50.3335,-42.3196 68.1674,-42.3196 9.4867,0 52.0183,4.6387 58.5551,42.17638 5.9502,34.16954 -11.899,66.96181 -62.5778,68.80333 -67.5912,2.45607 -70.0361,-49.56829 -64.1447,-68.66011 z m 182.2524,71.37711 c 23.0115,-31.83105 28.2249,-60.04437 11.8212,-95.37711 -46.1224,-99.58531 -269.8525,-78.32756 -269.3559,36.88242 -2.0534,75.81822 80.1003,100.1745 111.9565,103.97119 1.0259,0.12228 100.0884,11.76708 145.5782,-45.4765 z m 331.7296,39.0153 c 2.18,-2.4158 6.5885,-7.3174 9.7966,-10.8924 9.2086,-10.262 18.0106,-19.9077 22.8955,-25.0902 2.475,-2.6258 5.625,-6.1823 7,-7.9034 5.1264,-6.4165 8.8813,-10.00641 10.4662,-10.00641 1.79,0 6.6299,4.52741 10.6902,10.00001 1.4282,1.925 4.2588,5.2529 6.2902,7.3954 2.0314,2.1425 10.7024,11.7411 19.269,21.3301 8.5666,9.5891 16.7476,17.9235 18.18,18.5209 1.7499,0.7298 16.0559,1.0397 43.6044,0.9445 l 41,-0.1417 -0.1501,-3.0488 c -0.1147,-2.3315 -1.9015,-4.8666 -7.594,-10.7746 -4.0942,-4.2492 -11.0408,-11.5508 -15.4369,-16.2258 -4.396,-4.675 -11.1768,-11.732 -15.0683,-15.6822 -3.8915,-3.9502 -7.4674,-7.8825 -7.9464,-8.7385 -0.479,-0.8559 -11.3457,-12.16688 -24.1483,-25.13542 -17.1496,-17.37192 -23.1956,-24.11004 -22.9667,-25.59578 0.3142,-2.03952 20.0476,-22.75157 62.6648,-65.77266 21.5804,-21.78489 23.2875,-23.76533 22.4762,-26.07545 l -0.878,-2.5 -37.9761,-0.28788 c -20.8869,-0.15833 -39.4394,-0.0253 -41.2277,0.29559 -2.4162,0.43359 -4.5761,2.17725 -8.4083,6.78788 -6.3456,7.63474 -19.3123,21.96823 -27.3402,30.22225 -3.3,3.39293 -7.8862,8.26443 -10.1916,10.82556 -2.3053,2.56113 -4.6535,4.6566 -5.218,4.6566 -0.5646,0 -1.6034,-1.08055 -2.3085,-2.40122 -0.705,-1.32068 -6.5135,-7.95818 -12.9076,-14.75 -6.3941,-6.79183 -15.7989,-17.22299 -20.8995,-23.18036 -5.1006,-5.95737 -10.219,-11.18162 -11.3743,-11.60945 -1.6042,-0.59408 -79.7148,-0.76541 -82.7339,-0.18147 -0.3483,0.0674 -0.8999,1.135 -1.2256,2.3725 -0.4809,1.82659 0.6817,3.47319 6.1777,8.75 3.7235,3.575 9.8678,9.875 13.6539,14 8.4265,9.18055 50.3093,52.7399 60.2774,62.6902 3.9875,3.98038 7.25,7.87111 7.25,8.64607 0,0.77495 -1.9125,3.1821 -4.25,5.34921 -2.3375,2.16711 -7.625,7.7184 -11.75,12.3362 -4.125,4.61779 -9.3234,10.21451 -11.5521,12.43715 -2.2287,2.22264 -8.0851,8.54117 -13.0143,14.04117 -4.9292,5.50001 -14.8057,15.89791 -21.9479,23.10661 -29.3709,29.6442 -31.9824,32.8966 -28.1411,35.0466 0.8321,0.4657 19.3974,0.7984 41.2562,0.7392 l 39.7434,-0.1076 z m 304.4421,2.2991 c 0.9805,-1.2345 1.25,-22.4273 1.25,-98.31121 0,-86.31858 -0.1681,-96.9055 -1.5604,-98.2978 -1.3524,-1.35245 -6.0601,-1.55956 -35.3322,-1.55436 -25.2006,0.004 -34.1909,0.31891 -35.4232,1.23893 -1.5146,1.1308 -1.6552,9.18506 -1.6968,97.23293 -0.025,52.80001 -0.032,96.75531 -0.016,97.67861 0.016,0.9232 0.7163,2.3659 1.5564,3.206 1.3334,1.3333 5.8758,1.4546 35.75,0.954 29.4789,-0.4939 34.3959,-0.7915 35.4726,-2.1471 z m -509.0352,0.8477 c 14.9722,-0.036 16.294,-0.1871 17.2476,-1.9689 0.6292,-1.1757 1.2622,-17.292 1.6201,-41.25 0.8526,-57.07933 1.5424,-68.37096 4.8453,-79.32031 1.4932,-4.95 3.1432,-9.675 3.6666,-10.5 0.5234,-0.825 1.8198,-2.85 2.881,-4.5 3.1833,-4.94999 10.7767,-10.58272 17.8577,-13.24672 11.8467,-4.45694 26.1785,-3.16334 43.8204,3.95528 2.8344,1.14371 5.7867,1.83651 6.5605,1.53955 0.7739,-0.29696 1.941,-2.32202 2.5936,-4.50013 0.6525,-2.17811 3.05,-7.28745 5.3276,-11.35409 4.036,-7.20619 5.9884,-11.05931 11.8543,-23.39389 2.6809,-5.63746 2.7525,-6.11193 1.1843,-7.85238 -3.3407,-3.7076 -5.175,-4.28027 -24.6738,-7.7033 -11.4848,-2.01617 -27.1555,-2.47304 -34,-0.99125 -16.244,3.51669 -17.3012,3.90378 -25.6142,9.37866 -4.6628,3.07086 -10.4821,7.63508 -12.9318,10.14272 -2.8429,2.91012 -5.1775,4.46281 -6.454,4.29245 -1.8286,-0.24403 -2,-1.02253 -2,-9.08435 0,-7.56964 -0.2747,-9.02018 -1.9411,-10.25 -1.5857,-1.17023 -7.5697,-1.43255 -32.6786,-1.43255 -26.6098,0 -30.9485,0.21102 -32.3089,1.57143 -1.4067,1.40677 -1.5714,11.64111 -1.5714,97.67126 0,89.95972 0.1113,96.22282 1.7424,98.02512 1.6325,1.8039 2.8459,1.8901 19.25,1.368 9.6292,-0.3065 24.8043,-0.575 33.7224,-0.5966 z m 960.8855,0.1955 c 8.1861,-5.46604 -1.3627,-100.5839 6.9155,-132.41573 2.1936,-8.43478 10.8759,-25.23654 44.9842,-26.25768 26.6563,-0.79804 33.302,16.67059 34.7021,20.89822 0.7342,2.21703 1.2057,20.63096 1.4304,64.54048 0.1844,36.02501 0.5868,66.95701 0.8944,68.73781 0.3075,1.7808 1.4102,3.6933 2.4504,4.25 1.1663,0.6242 14.5376,1.0122 34.8855,1.0122 35.5919,0 35.444,0.021 36.6102,-5.3199 0.2617,-1.1991 0.6519,-25.5801 0.867,-54.18011 0.4486,-59.65296 1.1635,-68.87299 6.0065,-77.4701 11.0579,-19.62984 32.7462,-22.00613 44.1535,-22.5299 21.3086,-0.97839 34.9117,6.34055 35,25 l 0.3096,65.42713 c 0.1892,39.98398 0.689,66.13598 1.2852,67.24998 0.9149,1.7095 3.1103,1.8229 35.2854,1.8229 33.6107,0 34.3486,-0.043 36.2148,-2.1051 1.8349,-2.0276 1.905,-4.6663 1.905,-71.74998 v -69.64493 c 0,-42.70883 -31.0377,-50.96195 -69,-57.92549 -1.352,-0.24801 -38.8493,-7.08208 -75.5,10.69525 -7.7469,3.75762 -10.6738,5.69104 -18.1358,11.98024 -3.0997,2.6125 -6.3633,4.75 -7.2526,4.75 -0.8892,0 -3.1535,-1.70092 -5.0317,-3.77983 -17.5419,-18.31517 -30.0002,-19.4969 -52.561,-23.6571 -11.3245,-2.14821 -55.702,-6.02278 -89.0189,19.45418 -7.324,5.60057 -8.8342,6.48188 -9.6719,5.64419 -0.3221,-0.32209 -0.6926,-4.99019 -0.8233,-10.37353 -0.1307,-5.38335 -0.2978,-10.09051 -0.3712,-10.46036 -0.4106,-2.06698 -9.0051,-2.65633 -35.6336,-2.44347 -28.2533,0.22584 -32.4532,0.60951 -32.5438,2.97291 -0.024,0.62865 -0.063,44.47464 -0.087,97.43553 -0.033,73.90239 0.2379,96.63139 1.1663,97.74999 1.0167,1.2251 6.6507,1.455 35.3371,1.4422 18.7702,-0.01 34.6227,-0.3459 35.2279,-0.75 z M 1928.3874,631.68358 c 0.9191,-1.20316 1.25,-7.93055 1.25,-25.41009 0,-22.77328 -0.084,-23.81886 -2.0058,-24.84717 -1.3463,-0.72049 -13.0086,-0.97869 -35.4655,-0.78519 -29.4096,0.25341 -33.6577,0.48652 -35.096,1.92582 -1.4305,1.43156 -1.6176,4.57011 -1.4879,24.95371 0.094,14.79753 0.5373,23.78478 1.2129,24.59877 0.816,0.9832 8.5667,1.35099 33.2034,1.57559 35.8558,0.32688 36.6339,0.28611 38.3889,-2.01144 z"
       sodipodi:nodetypes="ccccssssccccccsssscssssccssssccsssssscccscsssssssssscssssssssscssssssssssssssssssssssscscsscsssssccsssssssssssssssssssssssssssssssssssssssssssssssssccsssssssscsssssssssss" />
    <path
       style="fill:#000000;stroke:#000000;stroke-linecap:square;stroke-linejoin:bevel;stroke-opacity:0;paint-order:markers stroke fill"
       inkscape:path-effect="#path-effect2"
       inkscape:original-d="m 321.98756,758.12221 c 70.64178,-94.24002 -5.46446,7.0415 209.30879,-284.61313 9.13175,-12.4006 12.41823,-26.12378 12.41823,-43.56476 V 288.07738 c -51.15876,67.22838 -109.11976,133.18731 -159.8978,200.83288 -24.34836,32.43644 -49.14295,64.8956 -72.09221,98.17449 l 0.24084,179.03173 c 4.11794,4.0034 7.6852,-7.15557 10.02215,-7.99427 z"
       transform="translate(64.984659,-13.502042)"
       d="m 321.98756,758.12221 c 70.64178,-94.24002 -5.46446,7.0415 209.30879,-284.61313 1.05723,-1.43569 2.03612,-2.8891 2.94063,-4.36397 11.64465,-18.98744 9.4776,-57.50071 9.4776,-80.0748 V 288.07738 c -51.15876,67.22838 -109.11976,133.18731 -159.8978,200.83288 -24.34836,32.43644 -49.14295,64.8956 -72.09221,98.17449 l 0.24084,179.03173 c 4.11794,4.0034 7.6852,-7.15557 10.02215,-7.99427 z"
       id="path1"
       sodipodi:nodetypes="csscsccc" />
    <path
       style="fill:#000000;stroke:#000000;stroke-linecap:square;stroke-linejoin:bevel;stroke-opacity:0;paint-order:markers stroke fill"
       inkscape:path-effect="#path-effect32"
       inkscape:original-d="M 582.75564,1146.0611 V 913.85068 l -62.31898,-55.91917 c 0,0 -35.21407,-30.78186 -60.42826,-54.91006 61.18677,-85.1297 91.9011,-127.43229 107.31874,-148.45245 15.41764,-21.02016 15.53859,-20.75789 15.53859,-20.75789 V 488.91026 l -54.6749,69.49639 -141.56862,191.08091 c -32.55473,43.94044 -33.69655,33.12913 0.49189,67.82355 l 103.78346,96.53957 v 58.25063 L 263.34227,776.9687 l -6.18475,-232.60047 -72.80185,106.32818 -8.05904,12.15407 -0.40336,31.09934 0.42287,59.21669 1.83672,59.1446 z"
       transform="translate(64.984659,-13.502042)"
       d="M 582.75564,1146.0611 V 913.85068 l -62.31898,-55.91917 c 0,0 -35.21407,-30.78186 -60.42826,-54.91006 61.18677,-85.1297 91.9011,-127.43229 107.31874,-148.45245 15.41764,-21.02016 15.53859,-20.75789 15.53859,-20.75789 V 488.91026 l -54.6749,69.49639 -141.56862,191.08091 c -32.55473,43.94044 -33.69655,33.12913 0.49189,67.82355 l 103.78346,96.53957 v 58.25063 L 263.34227,776.9687 l -6.18475,-232.60047 -72.80185,106.32818 -8.05904,12.15407 -0.40336,31.09934 0.42287,59.21669 1.83672,59.1446 z"
       id="path2" />
  </g>
</svg>
